<svg xmlns="http://www.w3.org/2000/svg" width="24" height="24" viewBox="0 0 24 24"><defs><style>.a{fill:none;}.b,.d{fill:#fff;}.c,.d{stroke:none;}</style></defs><path class="a" d="M0,0H24V24H0Z"/><g class="b"><path class="c" d="M 17.59000015258789 19.35354995727539 L 17.4132194519043 19.17678070068359 L 12 13.76356029510498 L 6.586780071258545 19.17678070068359 L 6.409999847412109 19.35354995727539 L 6.233220100402832 19.17678070068359 L 4.823219776153564 17.76678085327148 L 4.646450042724609 17.59000015258789 L 4.823219776153564 17.4132194519043 L 10.23643970489502 12 L 4.823219776153564 6.586780071258545 L 4.646450042724609 6.409999847412109 L 4.823219776153564 6.233220100402832 L 6.233220100402832 4.823219776153564 L 6.409999847412109 4.646450042724609 L 6.586780071258545 4.823219776153564 L 12 10.23643970489502 L 17.4132194519043 4.823219776153564 L 17.59000015258789 4.646450042724609 L 17.76678085327148 4.823219776153564 L 19.17678070068359 6.233220100402832 L 19.35354995727539 6.409999847412109 L 19.17678070068359 6.586780071258545 L 13.76356029510498 12 L 19.17678070068359 17.4132194519043 L 19.35354995727539 17.59000015258789 L 19.17678070068359 17.76678085327148 L 17.76678085327148 19.17678070068359 L 17.59000015258789 19.35354995727539 Z"/><path class="d" d="M 6.409999847412109 5 L 5 6.409999847412109 L 10.59000015258789 12 L 5 17.59000015258789 L 6.409999847412109 19 L 12 13.40999984741211 L 17.59000015258789 19 L 19 17.59000015258789 L 13.40999984741211 12 L 19 6.409999847412109 L 17.59000015258789 5 L 12 10.59000015258789 L 6.409999847412109 5 M 6.409999847412109 4.292890548706055 L 6.7635498046875 4.646450042724609 L 12 9.882900238037109 L 17.2364501953125 4.646450042724609 L 17.59000015258789 4.292890548706055 L 17.94355010986328 4.646450042724609 L 19.35354995727539 6.056449890136719 L 19.70710945129395 6.409999847412109 L 19.35354995727539 6.7635498046875 L 14.11709976196289 12 L 19.35354995727539 17.2364501953125 L 19.70710945129395 17.59000015258789 L 19.35354995727539 17.94355010986328 L 17.94355010986328 19.35354995727539 L 17.59000015258789 19.70710945129395 L 17.2364501953125 19.35354995727539 L 12 14.11709976196289 L 6.7635498046875 19.35354995727539 L 6.409999847412109 19.70710945129395 L 6.056449890136719 19.35354995727539 L 4.646450042724609 17.94355010986328 L 4.292890548706055 17.59000015258789 L 4.646450042724609 17.2364501953125 L 9.882900238037109 12 L 4.646450042724609 6.7635498046875 L 4.292890548706055 6.409999847412109 L 4.646450042724609 6.056449890136719 L 6.056449890136719 4.646450042724609 L 6.409999847412109 4.292890548706055 Z"/></g></svg>